<?xml version="1.0" ?>
<!DOCTYPE svg  PUBLIC '-//W3C//DTD SVG 1.1//EN'  'http://www.w3.org/Graphics/SVG/1.1/DTD/svg11.dtd'>
<svg xmlns="http://www.w3.org/2000/svg" xmlns:xlink="http://www.w3.org/1999/xlink">
<symbol class="icon" id="vk" viewBox="0 0 24 24">
<g data-name="VK Logo" id="VK_Logo"><path d="M20,13c.24-.45,1.09-1.74,1.73-2.7C23.65,7.46,24,6.86,24,6.5a.5.5,0,0,0-.5-.5H19a.5.5,0,0,0-.49.41c-.25,1.38-3.49,5.34-4,5.59-.21,0-.5-.52-.5-1.5V6.28a1.18,1.18,0,0,0-.24-.93C13.43,5,12.92,5,11.5,5,8.92,5,8,5.77,8,6.5A.46.46,0,0,0,8.45,7S9,7.36,9,9.5A14.61,14.61,0,0,1,8.87,12C7.6,11.77,5.84,8.6,5,6.32A.5.5,0,0,0,4.5,6H.5A.5.5,0,0,0,0,6.59C.56,9.61,6.91,19,11,19h2c1.06,0,1.14-1.15,1.2-1.91s.11-1.09.3-1.09c.62,0,1.89,1.1,2.72,1.82S18.59,19,19,19h2.5c1.29,0,2.5,0,2.5-1,0-.38-.33-.82-2.23-3C21.14,14.31,20.29,13.36,20,13Z"/></g>
</symbol>
<symbol class="icon" id="fb" viewBox="0 0 32 32">
<path d="M18,32V18h6l1-6h-7V9c0-2,1.002-3,3-3h3V0c-1,0-3.24,0-5,0c-5,0-7,3-7,8v4H6v6h6v14H18z" id="f_1_"/>
</symbol>
<symbol class="icon" id="ok" viewBox="0 0 24 24">
<path d="M12,12A5,5,0,1,0,7,7,5,5,0,0,0,12,12Zm0-7a2,2,0,1,1-2,2A2.00225,2.00225,0,0,1,12,5Z"/><path d="M13.8288,16.049a9.33918,9.33918,0,0,0,3.14972-1.2243,1.39994,1.39994,0,1,0-1.48437-2.374,6.71562,6.71562,0,0,1-6.88281.064A1.40038,1.40038,0,0,0,7.16992,14.916a9.34977,9.34977,0,0,0,3.00079,1.13348L7.00977,19.21045a1.40006,1.40006,0,1,0,1.98047,1.97949L12,18.18018l3.00977,3.00977a1.40006,1.40006,0,1,0,1.98047-1.97949Z"/>
</symbol>
</svg>