<?xml version="1.0" ?>
<!DOCTYPE svg  PUBLIC '-//W3C//DTD SVG 1.1//EN'  'http://www.w3.org/Graphics/SVG/1.1/DTD/svg11.dtd'>
<svg xmlns="http://www.w3.org/2000/svg" xmlns:xlink="http://www.w3.org/1999/xlink">
	<symbol class="icon" id="vk" viewBox="0 0 24 24">
	<g data-name="VK Logo" id="VK_Logo"><path d="M20,13c.24-.45,1.09-1.74,1.73-2.7C23.65,7.46,24,6.86,24,6.5a.5.5,0,0,0-.5-.5H19a.5.5,0,0,0-.49.41c-.25,1.38-3.49,5.34-4,5.59-.21,0-.5-.52-.5-1.5V6.28a1.18,1.18,0,0,0-.24-.93C13.43,5,12.92,5,11.5,5,8.92,5,8,5.77,8,6.5A.46.46,0,0,0,8.45,7S9,7.36,9,9.5A14.61,14.61,0,0,1,8.87,12C7.6,11.77,5.84,8.6,5,6.32A.5.5,0,0,0,4.5,6H.5A.5.5,0,0,0,0,6.59C.56,9.61,6.91,19,11,19h2c1.06,0,1.14-1.15,1.2-1.91s.11-1.09.3-1.09c.62,0,1.89,1.1,2.72,1.82S18.59,19,19,19h2.5c1.29,0,2.5,0,2.5-1,0-.38-.33-.82-2.23-3C21.14,14.31,20.29,13.36,20,13Z"/></g>
	</symbol>
	<symbol class="icon" id="gh" viewBox="0 0 475.084 475.084">
		<g>
			<path d="M436.244,146.752c5.14-15.422,7.713-31.409,7.713-47.967c0-22.08-4.859-42.828-14.564-62.242
					c-20.362,0-38.349,3.715-53.961,11.136c-15.604,7.423-33.4,18.938-53.379,34.545c-25.122-6.09-51.777-9.135-79.941-9.135
					c-30.837,0-60.245,3.333-88.223,9.994c-20.364-15.99-38.351-27.74-53.959-35.26c-15.608-7.52-33.689-11.279-54.247-11.279
					c-9.707,19.414-14.56,40.163-14.56,62.242c0,16.751,2.568,32.93,7.708,48.535C12.942,177.587,0,215.272,0,260.383
					c0,39.595,5.898,71.092,17.701,94.507c6.283,12.367,14.465,23.312,24.554,32.832c10.085,9.514,21.601,17.228,34.545,23.13
					c12.946,5.896,25.981,10.801,39.116,14.699c13.134,3.9,27.646,6.758,43.54,8.559c15.893,1.816,29.93,3.004,42.111,3.579
					c12.181,0.564,25.693,0.853,40.544,0.853c17.508,0,33.396-0.432,47.678-1.283c14.277-0.855,30.594-2.953,48.964-6.276
					c18.367-3.333,34.547-7.857,48.54-13.565c13.99-5.708,27.412-13.895,40.259-24.551c12.847-10.663,22.884-23.318,30.121-37.976
					c11.604-23.603,17.412-55.107,17.412-94.507C475.078,215.082,462.135,177.206,436.244,146.752z M401.995,354.455
					c-6.092,12.471-13.802,22.265-23.127,29.41c-9.329,7.139-20.938,12.847-34.831,17.135c-13.9,4.281-27.217,7.087-39.971,8.415
					c-12.758,1.334-26.933,1.998-42.545,1.998h-47.966c-15.607,0-29.79-0.664-42.541-1.998c-12.752-1.328-26.075-4.134-39.971-8.415
					c-13.891-4.288-25.5-9.996-34.829-17.135c-9.329-7.146-17.037-16.939-23.128-29.41c-6.09-12.471-9.136-27.076-9.136-43.824
					c0-22.847,6.567-42.264,19.702-58.245c13.134-15.99,30.929-23.982,53.387-23.982c8.188,0,26.746,1.997,55.677,5.995
					c13.513,2.093,28.456,3.14,44.823,3.14c16.372,0,31.313-1.044,44.824-3.14c29.317-3.999,47.869-5.995,55.678-5.995
					c22.457,0,40.252,7.996,53.386,23.982c13.135,15.988,19.698,35.398,19.698,58.245
					C411.125,327.382,408.079,341.995,401.995,354.455z"/>
			<path d="M166.875,265.52c-5.806-6.475-12.703-9.712-20.699-9.712c-7.998,0-14.896,3.241-20.701,9.712
					c-5.802,6.468-9.897,13.703-12.275,21.689c-2.383,8.002-3.571,15.804-3.571,23.422c0,7.61,1.191,15.413,3.571,23.414
					c2.375,7.991,6.468,15.222,12.275,21.689c5.808,6.475,12.703,9.713,20.701,9.713c7.996,0,14.896-3.244,20.699-9.713
					c5.804-6.468,9.897-13.698,12.275-21.689c2.38-8.001,3.571-15.804,3.571-23.414c0-7.611-1.188-15.42-3.571-23.422
					C176.771,279.226,172.682,271.994,166.875,265.52z"/>
			<path d="M349.601,265.52c-5.804-6.475-12.703-9.712-20.697-9.712c-7.991,0-14.894,3.241-20.701,9.712
					c-5.804,6.468-9.896,13.703-12.271,21.689c-2.385,8.002-3.576,15.804-3.576,23.422c0,7.61,1.191,15.413,3.576,23.414
					c2.375,7.991,6.468,15.222,12.271,21.689c5.808,6.475,12.71,9.713,20.701,9.713c7.994,0,14.894-3.244,20.697-9.713
					c5.801-6.468,9.896-13.698,12.278-21.689c2.379-8.001,3.569-15.804,3.569-23.414c0-7.611-1.19-15.42-3.569-23.422
					C359.498,279.226,355.402,271.994,349.601,265.52z"/>
		</g>
	</symbol>
	<symbol class="icon" id="sl" viewBox="0 0 31.444 31.443">
		<g>
			<path d="M31.202,16.369c-0.62-1.388-2.249-2.011-3.637-1.391l-1.325,0.594l-3.396-7.591l1.325-0.592
				c1.388-0.622,2.01-2.25,1.389-3.637c-0.62-1.389-2.248-2.012-3.637-1.39l-1.324,0.593l-0.593-1.326
				c-0.621-1.388-2.249-2.009-3.637-1.388c-1.388,0.62-2.009,2.247-1.389,3.637l0.593,1.325L7.98,8.598L7.388,7.273
				c-0.621-1.39-2.249-2.009-3.637-1.39C2.363,6.504,1.742,8.132,2.362,9.52l0.592,1.324L1.63,11.438
				c-1.388,0.621-2.01,2.247-1.389,3.636c0.62,1.388,2.249,2.01,3.637,1.39l1.325-0.594l3.394,7.592l-1.325,0.592
				c-1.388,0.621-2.009,2.25-1.389,3.637c0.621,1.389,2.249,2.011,3.637,1.391l1.324-0.593l0.593,1.325
				c0.621,1.389,2.249,2.01,3.637,1.389c1.387-0.62,2.009-2.248,1.388-3.636l-0.591-1.326l7.591-3.394l0.592,1.321
				c0.621,1.391,2.248,2.013,3.637,1.392c1.388-0.619,2.01-2.248,1.389-3.637l-0.592-1.324l1.323-0.594
				C31.201,19.384,31.823,17.757,31.202,16.369z M13.623,21.215l-3.395-7.593l7.591-3.394l3.395,7.591L13.623,21.215z"/>
		</g>
	</symbol>
	<symbol class="treugolnik1" id="treugolnik1" viewBox="0 0 210 40.5" preserveAspectRatio="none">
		<g>
			<path d="M0,0L210,37L210,40.5L0,40.5Z" />
		</g>
	</symbol>
	<symbol class="treugolnik2" id="treugolnik2" viewBox="0 0 210 40.5" preserveAspectRatio="none">
		<g>
			<path d="M0,37L210,0L210,40.5L0,40.5Z" />           
		</g>
	</symbol>
</svg>